<?xml version="1.0" encoding="UTF-8" standalone="no"?>
<!DOCTYPE svg PUBLIC "-//W3C//DTD SVG 1.1//EN"
 "http://www.w3.org/Graphics/SVG/1.1/DTD/svg11.dtd">
<!-- Generated by graphviz version 12.1.2 (20240928.0832)
 -->
<!-- Pages: 1 -->
<svg width="228pt" height="332pt"
 viewBox="0.00 0.00 228.00 332.00" xmlns="http://www.w3.org/2000/svg" xmlns:xlink="http://www.w3.org/1999/xlink">
<g id="graph0" class="graph" transform="scale(1 1) rotate(0) translate(4 328)">
<polygon fill="white" stroke="none" points="-4,4 -4,-328 224,-328 224,4 -4,4"/>
<!-- 5801895850729839981 -->
<g id="node1" class="node">
<title>5801895850729839981</title>
<polygon fill="none" stroke="black" points="206.5,-324 13.5,-324 13.5,-288 206.5,-288 206.5,-324"/>
<text text-anchor="middle" x="110" y="-298.62" font-family="Helvetica,sans-Serif" font-size="20.00">Sub(CumSum, 100)</text>
</g>
<!-- &#45;4871839955636965247 -->
<g id="node2" class="node">
<title>&#45;4871839955636965247</title>
<polygon fill="none" stroke="black" points="211,-252 9,-252 9,-216 211,-216 211,-252"/>
<text text-anchor="middle" x="110" y="-226.62" font-family="Helvetica,sans-Serif" font-size="20.00">CumSum(Projection)</text>
</g>
<!-- &#45;4871839955636965247&#45;&gt;5801895850729839981 -->
<g id="edge1" class="edge">
<title>&#45;4871839955636965247&#45;&gt;5801895850729839981</title>
<path fill="none" stroke="black" d="M110,-252.3C110,-259.59 110,-268.27 110,-276.46"/>
<polygon fill="black" stroke="black" points="106.5,-276.38 110,-286.38 113.5,-276.38 106.5,-276.38"/>
</g>
<!-- &#45;3117549906595747567 -->
<g id="node3" class="node">
<title>&#45;3117549906595747567</title>
<polygon fill="none" stroke="black" points="218.12,-180 1.88,-180 1.88,-144 218.12,-144 218.12,-180"/>
<text text-anchor="middle" x="110" y="-154.62" font-family="Helvetica,sans-Serif" font-size="20.00">Projection(LocSlice, a)</text>
</g>
<!-- &#45;3117549906595747567&#45;&gt;&#45;4871839955636965247 -->
<g id="edge2" class="edge">
<title>&#45;3117549906595747567&#45;&gt;&#45;4871839955636965247</title>
<path fill="none" stroke="black" d="M110,-180.3C110,-187.59 110,-196.27 110,-204.46"/>
<polygon fill="black" stroke="black" points="106.5,-204.38 110,-214.38 113.5,-204.38 106.5,-204.38"/>
</g>
<!-- &#45;8809338880191267531 -->
<g id="node4" class="node">
<title>&#45;8809338880191267531</title>
<polygon fill="none" stroke="black" points="220,-108 0,-108 0,-72 220,-72 220,-108"/>
<text text-anchor="middle" x="110" y="-82.62" font-family="Helvetica,sans-Serif" font-size="20.00">LocSlice(FromPandas)</text>
</g>
<!-- &#45;8809338880191267531&#45;&gt;&#45;3117549906595747567 -->
<g id="edge3" class="edge">
<title>&#45;8809338880191267531&#45;&gt;&#45;3117549906595747567</title>
<path fill="none" stroke="black" d="M110,-108.3C110,-115.59 110,-124.27 110,-132.46"/>
<polygon fill="black" stroke="black" points="106.5,-132.38 110,-142.38 113.5,-132.38 106.5,-132.38"/>
</g>
<!-- 7564983235886914805 -->
<g id="node5" class="node">
<title>7564983235886914805</title>
<polygon fill="none" stroke="black" points="175.38,-36 44.62,-36 44.62,0 175.38,0 175.38,-36"/>
<text text-anchor="middle" x="110" y="-10.62" font-family="Helvetica,sans-Serif" font-size="20.00">FromPandas</text>
</g>
<!-- 7564983235886914805&#45;&gt;&#45;8809338880191267531 -->
<g id="edge4" class="edge">
<title>7564983235886914805&#45;&gt;&#45;8809338880191267531</title>
<path fill="none" stroke="black" d="M110,-36.3C110,-43.59 110,-52.27 110,-60.46"/>
<polygon fill="black" stroke="black" points="106.5,-60.38 110,-70.38 113.5,-60.38 106.5,-60.38"/>
</g>
</g>
</svg>
